# xmcd CD database file
#
# Track frame offsets:
#	150
#	16900
#	53065
#	98156
#	118522
#	184212
#
# Disc length: 2698 seconds
#
# Revision: 0
# Processed by: cddbd v1.5.2PL0 Copyright (c) Steve Scherf et al.
# Submitted via: CDex 1.70beta2
#
DISCID=440a8806
DTITLE=Elephant9 - Walk the Nile
DYEAR=2010
DGENRE=Jazz
TTITLE0=Fugl fönix
TTITLE1=Aviation
TTITLE2=Walk the Nile
TTITLE3=Hardcore orientale
TTITLE4=Habanera rocket
TTITLE5=John Tinnick
EXTD=YEAR: 2010
EXTT0=
EXTT1=
EXTT2=
EXTT3=
EXTT4=
EXTT5=
PLAYORDER=
